<?xml version="1.0" encoding="utf-8"?>
<!-- Generator: Adobe Illustrator 23.0.0, SVG Export Plug-In . SVG Version: 6.00 Build 0)  -->
<svg version="1.1" id="Laag_1" xmlns="http://www.w3.org/2000/svg" xmlns:xlink="http://www.w3.org/1999/xlink" x="0px" y="0px"
	 viewBox="0 0 315 176" style="enable-background:new 0 0 315 176;" xml:space="preserve">
<g>
	<g>
		<path fill="#772E33" d="M54.43,83.13c-16.04,8.86-37.36,25-47.66,42.1c4.98-26.7,14.69-74.71,22.99-94.32c3.25-7.66,6.96-12.23,10.46-12.87
			c3.17-0.58,6.05,2.21,6.35,2.52l0.1,0.1c0.09,0.09,8.95,7.52,21.23,27.48c4.1,6.66,8.48,13.71,13.14,21.89
			C72.2,73.88,63.29,78.23,54.43,83.13 M214.95,40.94l0.15,0.88L215,39.4c-0.36,0.03-60.1,0.52-125.92,27.23
			c-5.68-12.42-10.82-22.32-15-29.65C66.73,22.64,59.11,12.48,52.5,6.15c-0.43-0.41-1.94-1.98-4.33-3.39
			c-3.69-2.18-7.66-2.98-11.47-2.32c-7.38,1.27-14.13,7.5-18.43,19.16C7.3,49.36,0.66,143.73,0.64,143.97l2.8-0.08
			c17.13-29.14,49.46-51.43,81.51-66.83c8.86,16.31,18.61,37.1,29.12,66.89l4.09-0.17c-8.76-28.17-17.78-51.57-25.92-70.1
			c12.6-5.66,24.97-10.25,36.16-13.75c23.9-7.49,46.19-11.62,60.68-14.09c15.73-2.69,25.93-3.74,26.03-3.74L214.95,40.94z"/>
		<path fill="#772E33" d="M245.05,41.78c-0.05,0.2-0.22,0.39-0.41,0.45c-0.33,0.12-0.68,0.15-1.03,0.22c-1.2,0.26-2.43,0.37-3.66,0.44
			c-0.35,0.02-0.7,0.04-1.05,0.06c-0.2,0.01-0.39,0-0.58,0c-0.13,0-0.39-0.02-0.49,0.08c-1.4,1.41-3.19,3.11-4.69,4.56
			c-0.43,0.41-0.83,0.85-1.29,1.23c-0.42,0.35-0.89,0.69-1.46,0.74c-0.16,0.01-0.32,0.01-0.48-0.02c-0.14-0.02-0.37-0.02-0.49-0.08
			c-0.17-0.1,2.65-4.28,2.89-4.65c0.21-0.3,0.75-0.87,0.71-1.24c-0.02-0.27-0.32-0.34-0.54-0.36c-0.26-0.02-0.53,0.04-0.79,0.06
			c-0.56,0.06-1.12,0.09-1.67,0.09c-1.15,0.02-2.31-0.03-3.45-0.2c-0.32-0.04-0.65-0.11-0.98-0.18c-0.68-0.17-1.4-0.46-1.73-1.12
			c-0.4-0.79-0.3-1.76-0.27-2.61c0.01-0.26,0.01-0.53,0.01-0.8v-0.6c0.01-0.29-0.09-0.67,0.27-0.77c0.19-0.06,0.44,0.02,0.61,0.11
			c0.39,0.2,0.63,0.58,0.84,0.96c0.23,0.41,0.49,0.81,0.73,1.21c0.19,0.33,0.42,0.69,0.83,0.73c0.37,0.04,0.77,0.01,1.15-0.03
			c0.22-0.02,0.44-0.04,0.66-0.05c1.55-0.07,3.09-0.15,4.64-0.22c1.51-0.07,3.02-0.14,4.53-0.21c0.86-0.04,1.72-0.11,2.59-0.12
			c0.8-0.01,1.66,0,2.43,0.26c0.43,0.14,0.88,0.38,1.22,0.67c0.29,0.23,0.57,0.48,0.76,0.8c0.09,0.15,0.18,0.34,0.18,0.52
			C245.06,41.72,245.06,41.75,245.05,41.78"/>
		<path fill="#772E33" d="M230.49,36c0,0,1.1,1.37,1.71,1.92c0.6,0.55,0.6,0.55,0.96,0.69c0.47,0.18,0.98,0.25,1.5,0.26
			c0.39,0.01,0.81,0.02,1.2-0.06c0.48-0.1-0.11-0.62-0.27-0.74c-0.04-0.04-0.09-0.07-0.14-0.1c0,0-2.52-1.93-3.23-2.21
			c-0.71-0.28-1.07-0.42-1.53-0.29C230.24,35.59,230.49,36,230.49,36"/>
	</g>
	<polygon fill="#772E33" points="139.16,120.89 158.32,78.53 170.64,78.53 139.15,145.68 107.54,78.53 120.01,78.53 	"/>
	<g>
		<path fill="#772E33" d="M186.24,143.86H175.3V78.38h10.95V143.86z M186.3,64.34c0,3.08-2.52,5.47-5.51,5.47c-3,0-5.51-2.4-5.51-5.47
			c0-2.98,2.51-5.47,5.51-5.47C183.78,58.87,186.3,61.37,186.3,64.34"/>
		<path fill="#772E33" d="M280.23,146.72c-0.73,2.9-1.05,5.63-0.98,8.18c0.06,2.55,0.46,4.8,1.2,6.72c0.72,1.92,1.75,3.44,3.06,4.55
			c1.31,1.11,2.89,1.66,4.72,1.67c1.83,0.01,3.67-0.54,5.53-1.64c1.86-1.1,3.62-2.61,5.31-4.53c1.68-1.92,3.19-4.16,4.52-6.71
			c1.34-2.55,2.37-5.27,3.09-8.17c0.72-2.9,1.07-5.72,1.05-8.46c-0.02-2.75-0.4-5.18-1.11-7.29c-0.71-2.12-1.71-3.82-2.97-5.11
			c-1.27-1.3-2.82-1.95-4.66-1.95c-1.82-0.01-3.7,0.63-5.61,1.93c-1.9,1.29-3.71,2.98-5.45,5.09c-1.73,2.11-3.26,4.54-4.61,7.28
			C281.99,141,280.95,143.82,280.23,146.72 M273.6,146.14c1-4.03,2.48-7.86,4.46-11.48c1.97-3.62,4.19-6.81,6.67-9.54
			c2.48-2.74,5.14-4.89,7.98-6.46c2.84-1.57,5.64-2.35,8.38-2.34c2.75,0.01,5.14,0.8,7.18,2.38c2.04,1.58,3.63,3.74,4.79,6.49
			c1.16,2.74,1.79,5.93,1.93,9.56c0.13,3.63-0.29,7.46-1.3,11.49c-1.06,4.1-2.56,7.89-4.48,11.39c-1.94,3.49-4.13,6.55-6.61,9.16
			c-2.46,2.62-5.1,4.66-7.9,6.13c-2.81,1.47-5.58,2.21-8.32,2.21c-2.74-0.01-5.16-0.76-7.24-2.24c-2.08-1.48-3.69-3.53-4.85-6.16
			c-1.16-2.62-1.83-5.68-2.01-9.18C272.09,154.03,272.53,150.24,273.6,146.14"/>
		<path fill="#772E33" d="M226.98,135.5c-13.69,0-21.08-12.21-21.08-25.13c0-12.35,8.21-23.72,20.94-23.72c13.55,0,21.63,10.67,21.63,23.87
			C248.47,123.85,241.08,135.5,226.98,135.5 M258.86,119.36V78.09h-10.94v9.4h-0.28c-5.33-7.02-13.27-11.23-22.03-11.23
			c-19.29,0-30.92,16.14-30.92,34.95c0,18.25,11.9,34.67,30.79,34.67c7.63,0,14.17-2.62,19.41-7.82
			C247.93,130.33,252.96,123.71,258.86,119.36"/>
		<path fill="#772E33" d="M250.88,144.06c1.47-5.85,4.37-10.98,7.98-14.73c3.99-4.13,8.84-6.56,13.64-6.31c2.74,0.14,5.1,1.09,7.05,2.84
			c1.96-2.2,3.98-4.39,5.96-6.51c-2.84-2.8-6.54-4.45-10.45-4.64c-0.32-0.01-0.64-0.02-0.96-0.02c-5.23,0-10.53,2.12-15.24,5.73
			c-5.02,3.85-9.38,9.39-12.32,15.87c-1.09,2.42-1.99,4.98-2.65,7.62c-2.43,9.86-1.33,18.89,3.03,24.76
			c3.03,4.08,7.44,6.38,12.73,6.65c4.48,0.22,8.76-1.04,13.61-3.99l-0.62-1.07c-0.98-1.67-2-3.4-2.87-5.19
			c-2.73,1.42-5.49,2.04-8.42,1.9c-3.47-0.17-6.38-1.71-8.4-4.44c-3.13-4.25-3.91-11.14-2.08-18.43
			C250.88,144.09,250.88,144.08,250.88,144.06"/>
		<path fill="#772E33" d="M12.07,172.62c-1.25,1.19-2.68,1.79-4.28,1.79c-1.72,0-3.17-0.61-4.38-1.81c-1.22-1.21-1.82-2.67-1.82-4.39
			c0-1.7,0.6-3.16,1.82-4.38c1.21-1.21,2.66-1.82,4.38-1.82c1.6,0,3.12,0.65,4.55,1.96l-1.17,1.07c-1.08-0.97-2.21-1.44-3.38-1.44
			c-1.27,0-2.35,0.45-3.26,1.35c-0.9,0.9-1.35,1.99-1.35,3.26c0,1.28,0.45,2.37,1.35,3.27c0.9,0.9,1.99,1.35,3.26,1.35
			c1.09,0,2-0.29,2.71-0.87v-3.66h1.58V172.62z"/>
		<path fill="#772E33" d="M15.99,163.73v5.09h1.43c0.7,0,1.3-0.24,1.79-0.74c0.5-0.5,0.75-1.1,0.75-1.81c0-0.7-0.25-1.3-0.75-1.8
			c-0.49-0.49-1.1-0.74-1.79-0.74H15.99z M17.42,170.4h-1.43v3.88h-1.57v-12.13h3.45c0.97,0.14,1.8,0.53,2.47,1.21
			c0.8,0.81,1.21,1.78,1.21,2.91c0,1.14-0.41,2.12-1.21,2.92c-0.56,0.56-0.98,0.87-1.27,0.94l2.69,4.14h-1.91L17.42,170.4z"/>
		<path fill="#772E33" d="M29.32,163.58c-1.27,0-2.36,0.45-3.27,1.35c-0.9,0.9-1.36,1.99-1.36,3.27c0,1.28,0.45,2.37,1.36,3.28
			c0.91,0.91,1.99,1.36,3.26,1.36c1.28,0,2.37-0.45,3.27-1.36c0.91-0.9,1.36-2,1.36-3.28c0-1.27-0.45-2.37-1.36-3.27
			C31.69,164.03,30.6,163.58,29.32,163.58 M33.71,163.81c1.21,1.22,1.81,2.68,1.81,4.39c0,1.72-0.6,3.18-1.81,4.39
			c-1.22,1.21-2.68,1.82-4.4,1.82c-1.71,0-3.17-0.6-4.38-1.82c-1.22-1.21-1.83-2.68-1.83-4.39c0-1.71,0.61-3.17,1.83-4.39
			c1.21-1.21,2.67-1.82,4.38-1.82C31.04,161.99,32.49,162.6,33.71,163.81"/>
		<path fill="#772E33" d="M44.29,162.15h1.57v8.55c-0.13,0.97-0.53,1.8-1.2,2.47c-0.81,0.81-1.78,1.21-2.92,1.21c-1.13,0-2.11-0.4-2.92-1.21
			c-0.8-0.81-1.2-1.78-1.2-2.91v-8.11h1.58v8.11c0,0.69,0.25,1.29,0.75,1.79c0.49,0.5,1.1,0.75,1.8,0.75c0.71,0,1.31-0.25,1.8-0.74
			c0.5-0.49,0.75-1.1,0.75-1.8V162.15z"/>
	</g>
	<polygon fill="#772E33" points="48.15,162.15 49.58,162.15 54.59,170.81 54.59,162.15 56.16,162.15 56.16,174.28 54.79,174.28 49.71,165.52 
		49.71,174.28 48.15,174.28 	"/>
	<g>
		<path fill="#772E33" d="M60,163.75v8.94c1.25,0,2.27-0.4,3.07-1.21c0.9-0.9,1.35-1.99,1.35-3.26c0-1.27-0.45-2.36-1.35-3.27
			C62.27,164.15,61.25,163.75,60,163.75 M59.59,162.15c1.97,0.01,3.51,0.57,4.61,1.67c1.21,1.23,1.81,2.68,1.81,4.39
			c0,1.71-0.6,3.17-1.81,4.39c-1.11,1.11-2.65,1.66-4.61,1.67h-1.15v-12.13H59.59z"/>
		<path fill="#772E33" d="M76.37,168.06c-0.87-0.29-1.56-0.7-2.1-1.23c-0.53-0.53-0.8-1.19-0.8-1.98c0-0.77,0.28-1.44,0.83-1.99
			c0.55-0.56,1.23-0.83,2.02-0.83c0.77,0,1.44,0.27,2,0.82c0.31,0.31,0.58,0.79,0.79,1.45l-1.43,0.56
			c-0.17-0.46-0.33-0.77-0.47-0.91c-0.24-0.24-0.54-0.36-0.89-0.36c-0.36,0-0.66,0.12-0.9,0.37c-0.25,0.25-0.37,0.54-0.37,0.9
			c0,0.35,0.12,0.66,0.37,0.9c0.28,0.27,0.66,0.52,1.15,0.75c0.95,0.31,1.75,0.8,2.42,1.45c0.74,0.74,1.11,1.62,1.11,2.67
			c0,1.05-0.36,1.94-1.1,2.68c-0.74,0.74-1.63,1.11-2.67,1.11c-1.05,0-1.94-0.37-2.68-1.11c-0.59-0.6-0.96-1.41-1.12-2.45l1.52-0.55
			c0.1,0.9,0.33,1.53,0.71,1.9c0.43,0.44,0.95,0.65,1.57,0.65c0.62,0,1.13-0.22,1.56-0.65c0.44-0.43,0.66-0.96,0.66-1.58
			c0-0.61-0.22-1.13-0.66-1.57C77.47,168.63,76.97,168.31,76.37,168.06"/>
		<path fill="#772E33" d="M88.3,162.15h1.58v8.55c-0.15,0.97-0.54,1.8-1.21,2.47c-0.8,0.81-1.78,1.21-2.92,1.21c-1.14,0-2.11-0.4-2.91-1.21
			c-0.81-0.81-1.21-1.78-1.21-2.91v-8.11h1.58v8.11c0,0.69,0.25,1.29,0.74,1.79c0.5,0.5,1.1,0.75,1.8,0.75
			c0.71,0,1.31-0.25,1.8-0.74c0.5-0.49,0.75-1.1,0.75-1.8V162.15z"/>
		<path fill="#772E33" d="M93.71,163.73v5.09h1.44c0.7,0,1.3-0.24,1.8-0.74c0.49-0.5,0.74-1.1,0.74-1.81c0-0.7-0.25-1.3-0.74-1.8
			c-0.5-0.49-1.09-0.74-1.8-0.74H93.71z M93.71,170.4v3.88h-1.56v-12.13h3.44c0.97,0.14,1.8,0.53,2.47,1.21
			c0.81,0.81,1.2,1.78,1.2,2.91c0,1.14-0.4,2.12-1.2,2.92c-0.81,0.81-1.78,1.21-2.91,1.21H93.71z"/>
		<path fill="#772E33" d="M102.4,163.73v5.09h1.43c0.7,0,1.3-0.24,1.79-0.74c0.51-0.5,0.75-1.1,0.75-1.81c0-0.7-0.24-1.3-0.75-1.8
			c-0.5-0.49-1.09-0.74-1.79-0.74H102.4z M102.4,170.4v3.88h-1.57v-12.13h3.44c0.98,0.14,1.81,0.53,2.47,1.21
			c0.8,0.81,1.21,1.78,1.21,2.91c0,1.14-0.4,2.12-1.21,2.92c-0.8,0.81-1.77,1.21-2.91,1.21H102.4z"/>
		<path fill="#772E33" d="M115.52,163.58c-1.27,0-2.37,0.45-3.27,1.35c-0.91,0.9-1.35,1.99-1.35,3.27c0,1.28,0.45,2.37,1.35,3.28
			c0.91,0.91,2,1.36,3.27,1.36c1.28,0,2.37-0.45,3.28-1.36c0.9-0.9,1.35-2,1.35-3.28c0-1.27-0.46-2.37-1.35-3.27
			C117.9,164.03,116.81,163.58,115.52,163.58 M119.92,163.81c1.21,1.22,1.81,2.68,1.81,4.39c0,1.72-0.61,3.18-1.81,4.39
			c-1.21,1.21-2.68,1.82-4.4,1.82c-1.71,0-3.17-0.6-4.39-1.82c-1.22-1.21-1.81-2.68-1.81-4.39c0-1.71,0.6-3.17,1.81-4.39
			c1.21-1.21,2.67-1.82,4.39-1.82C117.24,161.99,118.71,162.6,119.92,163.81"/>
		<path fill="#772E33" d="M125.39,163.73v5.09h1.44c0.7,0,1.3-0.24,1.8-0.74c0.49-0.5,0.74-1.1,0.74-1.81c0-0.7-0.25-1.3-0.74-1.8
			c-0.5-0.49-1.1-0.74-1.8-0.74H125.39z M126.83,170.4h-1.44v3.88h-1.57v-12.13h3.44c0.98,0.14,1.8,0.53,2.47,1.21
			c0.81,0.81,1.21,1.78,1.21,2.91c0,1.14-0.41,2.12-1.21,2.92c-0.55,0.56-0.98,0.87-1.27,0.94l2.7,4.14h-1.91L126.83,170.4z"/>
	</g>
	<polygon fill="#772E33" points="136.46,163.72 136.46,174.28 134.88,174.28 134.88,163.72 132.06,163.72 132.06,162.15 139.29,162.15 
		139.29,163.72 	"/>
	<polygon fill="#772E33" points="152.71,162.15 152.71,163.72 147.75,163.72 147.75,167.43 152.71,167.43 152.71,169 147.75,169 147.75,172.7 
		152.71,172.7 152.71,174.28 146.17,174.28 146.17,162.15 	"/>
	<g>
		<path fill="#772E33" d="M160.81,163.58c-1.28,0-2.36,0.45-3.27,1.35c-0.9,0.9-1.35,2-1.35,3.27c0,1.28,0.45,2.37,1.36,3.28
			c0.9,0.91,2,1.36,3.26,1.36c1.28,0,2.37-0.45,3.27-1.36c0.91-0.9,1.36-2,1.36-3.28c0-1.27-0.45-2.37-1.36-3.27
			C163.18,164.03,162.09,163.58,160.81,163.58 M163.4,173.86c0.12,0.08,0.25,0.15,0.37,0.24c0.35,0.19,0.59,0.3,0.72,0.34
			c0.05,0.02,0.11,0.02,0.16,0.02c0.09,0,0.18-0.03,0.26-0.08c0.13-0.08,0.22-0.19,0.26-0.33c0.02-0.05,0.03-0.24,0.05-0.56h1.59
			c-0.04,0.49-0.08,0.82-0.12,0.99c-0.16,0.56-0.5,0.98-1.01,1.26c-0.32,0.19-0.66,0.28-1.01,0.28c-0.2,0-0.4-0.03-0.6-0.09
			c-0.32-0.09-0.76-0.3-1.29-0.65c-0.44-0.23-0.74-0.37-0.91-0.41c-0.09-0.03-0.19-0.04-0.27-0.04c-0.15,0-0.3,0.04-0.44,0.12
			c-0.24,0.13-0.39,0.33-0.45,0.59c-0.01,0.03-0.03,0.19-0.06,0.5h-1.59c0.04-0.48,0.08-0.79,0.13-0.94
			c0.09-0.31,0.21-0.58,0.39-0.82c-1.19-0.23-2.24-0.8-3.15-1.7c-1.21-1.21-1.83-2.68-1.83-4.39c0-1.71,0.61-3.17,1.83-4.39
			c1.21-1.21,2.67-1.82,4.38-1.82c1.72,0,3.18,0.61,4.39,1.82c1.21,1.22,1.82,2.68,1.82,4.39c0,1.72-0.61,3.18-1.82,4.39
			C164.66,173.14,164.06,173.56,163.4,173.86"/>
		<path fill="#772E33" d="M175.79,162.15h1.57v8.55c-0.13,0.97-0.54,1.8-1.21,2.47c-0.81,0.81-1.78,1.21-2.91,1.21c-1.14,0-2.11-0.4-2.92-1.21
			c-0.81-0.81-1.21-1.78-1.21-2.91v-8.11h1.58v8.11c0,0.69,0.25,1.29,0.75,1.79c0.5,0.5,1.1,0.75,1.8,0.75s1.31-0.25,1.8-0.74
			c0.49-0.49,0.75-1.1,0.75-1.8V162.15z"/>
	</g>
	<rect fill="#772E33" x="179.79" y="162.15" width="1.57" height="12.13"/>
	<g>
		<path fill="#772E33" d="M185.36,163.73v5.09h1.44c0.7,0,1.3-0.24,1.8-0.74c0.5-0.5,0.75-1.1,0.75-1.81c0-0.7-0.25-1.3-0.75-1.8
			c-0.5-0.49-1.1-0.74-1.8-0.74H185.36z M185.36,170.4v3.88h-1.56v-12.13h3.44c0.98,0.14,1.8,0.53,2.46,1.21
			c0.81,0.81,1.21,1.78,1.21,2.91c0,1.14-0.4,2.12-1.21,2.92c-0.8,0.81-1.77,1.21-2.91,1.21H185.36z"/>
	</g>
	<polygon fill="#772E33" points="194.28,162.15 198.22,168.95 202.13,162.15 203.56,162.15 203.56,174.28 202,174.28 202,165.52 198.22,172.07 
		194.42,165.52 194.42,174.28 192.84,174.28 192.84,162.15 	"/>
	<polygon fill="#772E33" points="212.74,162.15 212.74,163.72 207.78,163.72 207.78,167.43 212.74,167.43 212.74,169 207.78,169 207.78,172.7 
		212.74,172.7 212.74,174.28 206.21,174.28 206.21,162.15 	"/>
	<polygon fill="#772E33" points="214.83,162.15 216.26,162.15 221.26,170.81 221.26,162.15 222.85,162.15 222.85,174.28 221.47,174.28 
		216.4,165.52 216.4,174.28 214.83,174.28 	"/>
	<polygon fill="#772E33" points="228.77,163.72 228.77,174.28 227.18,174.28 227.18,163.72 224.36,163.72 224.36,162.15 231.59,162.15 
		231.59,163.72 	"/>
</g>
</svg>
